<svg id="Outline" xmlns="http://www.w3.org/2000/svg" width="40" height="40" viewBox="0 0 40 40">
  <defs>
    <style>
      .cls-1 {
        fill: none;
      }
    </style>
  </defs>
  <g>
    <path d="M27.5,7A9.996,9.996,0,0,0,20,10.33057,9.996,9.996,0,0,0,12.5,7a9.86338,9.86338,0,0,0-8.34717,4.46826A1.00472,1.00472,0,0,0,4,12V32a1.00019,1.00019,0,0,0,1.84717.53174A7.84659,7.84659,0,0,1,12.5,29a7.84659,7.84659,0,0,1,6.65283,3.53174,1.03931,1.03931,0,0,0,1.69434,0,8.03192,8.03192,0,0,1,13.30566,0A1.00019,1.00019,0,0,0,36,32V12a1.00472,1.00472,0,0,0-.15283-.53174A9.86338,9.86338,0,0,0,27.5,7Zm-15,20A10.102,10.102,0,0,0,6,29.34863V12.29834A7.88308,7.88308,0,0,1,12.5,9,7.86613,7.86613,0,0,1,19,12.32184V29.36511A10.08748,10.08748,0,0,0,12.5,27ZM34,29.34863a10.14161,10.14161,0,0,0-13,.01648V12.32184a8.03707,8.03707,0,0,1,13-.0235Z"/>
    <rect class="cls-1" width="40" height="40"/>
  </g>
</svg>
